HIERARCHY
ROOT Hips
{
  OFFSET 0.000000 95.000000 0.000000
  CHANNELS 6 Xposition Yposition Zposition Zrotation Xrotation Yrotation
  JOINT Spine
  {
    OFFSET 0.000000 10.000000 0.000000
    CHANNELS 3 Zrotation Xrotation Yrotation
    JOINT Spine1
    {
      OFFSET 0.000000 12.000000 0.000000
      CHANNELS 3 Zrotation Xrotation Yrotation
      JOINT Spine2
      {
        OFFSET 0.000000 12.000000 0.000000
        CHANNELS 3 Zrotation Xrotation Yrotation
        JOINT Neck
        {
          OFFSET 0.000000 10.000000 0.000000
          CHANNELS 3 Zrotation Xrotation Yrotation
          JOINT Head
          {
            OFFSET 0.000000 8.000000 0.000000
            CHANNELS 3 Zrotation Xrotation Yrotation
            End Site
            {
              OFFSET 0.000000 10.000000 0.000000
            }
          }
        }
        JOINT LeftShoulder
        {
          OFFSET 6.000000 8.000000 0.000000
          CHANNELS 3 Zrotation Xrotation Yrotation
          JOINT LeftArm
          {
            OFFSET 12.000000 0.000000 0.000000
            CHANNELS 3 Zrotation Xrotation Yrotation
            JOINT LeftForeArm
            {
              OFFSET 24.000000 0.000000 0.000000
              CHANNELS 3 Zrotation Xrotation Yrotation
              JOINT LeftHand
              {
                OFFSET 22.000000 0.000000 0.000000
                CHANNELS 3 Zrotation Xrotation Yrotation
                JOINT LeftHandThumb1
                {
                  OFFSET 1.800000 -1.400000 0.500000
                  CHANNELS 3 Zrotation Xrotation Yrotation
                  JOINT LeftHandThumb2
                  {
                    OFFSET 2.400000 0.000000 0.000000
                    CHANNELS 3 Zrotation Xrotation Yrotation
                    JOINT LeftHandThumb3
                    {
                      OFFSET 1.900000 0.000000 0.000000
                      CHANNELS 3 Zrotation Xrotation Yrotation
                      End Site
                      {
                        OFFSET 1.600000 0.000000 0.000000
                      }
                    }
                  }
                }
                JOINT LeftHandIndex1
                {
                  OFFSET 6.600000 1.200000 0.300000
                  CHANNELS 3 Zrotation Xrotation Yrotation
                  JOINT LeftHandIndex2
                  {
                    OFFSET 2.000000 0.000000 0.000000
                    CHANNELS 3 Zrotation Xrotation Yrotation
                    JOINT LeftHandIndex3
                    {
                      OFFSET 1.200000 0.000000 0.000000
                      CHANNELS 3 Zrotation Xrotation Yrotation
                      End Site
                      {
                        OFFSET 1.000000 0.000000 0.000000
                      }
                    }
                  }
                }
                JOINT LeftHandMiddle1
                {
                  OFFSET 7.200000 0.000000 0.300000
                  CHANNELS 3 Zrotation Xrotation Yrotation
                  JOINT LeftHandMiddle2
                  {
                    OFFSET 3.000000 0.000000 0.000000
                    CHANNELS 3 Zrotation Xrotation Yrotation
                    JOINT LeftHandMiddle3
                    {
                      OFFSET 2.000000 0.000000 0.000000
                      CHANNELS 3 Zrotation Xrotation Yrotation
                      End Site
                      {
                        OFFSET 1.600000 0.000000 0.000000
                      }
                    }
                  }
                }
                JOINT LeftHandRing1
                {
                  OFFSET 7.100000 -1.000000 0.400000
                  CHANNELS 3 Zrotation Xrotation Yrotation
                  JOINT LeftHandRing2
                  {
                    OFFSET 2.600000 0.000000 0.000000
                    CHANNELS 3 Zrotation Xrotation Yrotation
                    JOINT LeftHandRing3
                    {
                      OFFSET 1.600000 0.000000 0.000000
                      CHANNELS 3 Zrotation Xrotation Yrotation
                      End Site
                      {
                        OFFSET 1.300000 0.000000 0.000000
                      }
                    }
                  }
                }
                JOINT LeftHandPinky1
                {
                  OFFSET 6.500000 -2.000000 0.500000
                  CHANNELS 3 Zrotation Xrotation Yrotation
                  JOINT LeftHandPinky2
                  {
                    OFFSET 1.900000 0.000000 0.000000
                    CHANNELS 3 Zrotation Xrotation Yrotation
                    JOINT LeftHandPinky3
                    {
                      OFFSET 1.400000 0.000000 0.000000
                      CHANNELS 3 Zrotation Xrotation Yrotation
                      End Site
                      {
                        OFFSET 1.300000 0.000000 0.000000
                      }
                    }
                  }
                }
              }
            }
          }
        }
        JOINT RightShoulder
        {
          OFFSET -6.000000 8.000000 0.000000
          CHANNELS 3 Zrotation Xrotation Yrotation
          JOINT RightArm
          {
            OFFSET -12.000000 0.000000 0.000000
            CHANNELS 3 Zrotation Xrotation Yrotation
            JOINT RightForeArm
            {
              OFFSET -24.000000 0.000000 0.000000
              CHANNELS 3 Zrotation Xrotation Yrotation
              JOINT RightHand
              {
                OFFSET -22.000000 0.000000 0.000000
                CHANNELS 3 Zrotation Xrotation Yrotation
                JOINT RightHandThumb1
                {
                  OFFSET -1.800000 -1.400000 0.500000
                  CHANNELS 3 Zrotation Xrotation Yrotation
                  JOINT RightHandThumb2
                  {
                    OFFSET -2.400000 0.000000 0.000000
                    CHANNELS 3 Zrotation Xrotation Yrotation
                    JOINT RightHandThumb3
                    {
                      OFFSET -1.900000 0.000000 0.000000
                      CHANNELS 3 Zrotation Xrotation Yrotation
                      End Site
                      {
                        OFFSET -1.600000 0.000000 0.000000
                      }
                    }
                  }
                }
                JOINT RightHandIndex1
                {
                  OFFSET -6.600000 1.200000 0.300000
                  CHANNELS 3 Zrotation Xrotation Yrotation
                  JOINT RightHandIndex2
                  {
                    OFFSET -2.000000 0.000000 0.000000
                    CHANNELS 3 Zrotation Xrotation Yrotation
                    JOINT RightHandIndex3
                    {
                      OFFSET -1.200000 0.000000 0.000000
                      CHANNELS 3 Zrotation Xrotation Yrotation
                      End Site
                      {
                        OFFSET -1.000000 0.000000 0.000000
                      }
                    }
                  }
                }
                JOINT RightHandMiddle1
                {
                  OFFSET -7.200000 0.000000 0.300000
                  CHANNELS 3 Zrotation Xrotation Yrotation
                  JOINT RightHandMiddle2
                  {
                    OFFSET -3.000000 0.000000 0.000000
                    CHANNELS 3 Zrotation Xrotation Yrotation
                    JOINT RightHandMiddle3
                    {
                      OFFSET -2.000000 0.000000 0.000000
                      CHANNELS 3 Zrotation Xrotation Yrotation
                      End Site
                      {
                        OFFSET -1.600000 0.000000 0.000000
                      }
                    }
                  }
                }
                JOINT RightHandRing1
                {
                  OFFSET -7.100000 -1.000000 0.400000
                  CHANNELS 3 Zrotation Xrotation Yrotation
                  JOINT RightHandRing2
                  {
                    OFFSET -2.600000 0.000000 0.000000
                    CHANNELS 3 Zrotation Xrotation Yrotation
                    JOINT RightHandRing3
                    {
                      OFFSET -1.600000 0.000000 0.000000
                      CHANNELS 3 Zrotation Xrotation Yrotation
                      End Site
                      {
                        OFFSET -1.300000 0.000000 0.000000
                      }
                    }
                  }
                }
                JOINT RightHandPinky1
                {
                  OFFSET -6.500000 -2.000000 0.500000
                  CHANNELS 3 Zrotation Xrotation Yrotation
                  JOINT RightHandPinky2
                  {
                    OFFSET -1.900000 0.000000 0.000000
                    CHANNELS 3 Zrotation Xrotation Yrotation
                    JOINT RightHandPinky3
                    {
                      OFFSET -1.400000 0.000000 0.000000
                      CHANNELS 3 Zrotation Xrotation Yrotation
                      End Site
                      {
                        OFFSET -1.300000 0.000000 0.000000
                      }
                    }
                  }
                }
              }
            }
          }
        }
      }
    }
  }
  JOINT LeftUpLeg
  {
    OFFSET 10.000000 -5.000000 0.000000
    CHANNELS 3 Zrotation Xrotation Yrotation
    JOINT LeftLeg
    {
      OFFSET 0.000000 -42.000000 0.000000
      CHANNELS 3 Zrotation Xrotation Yrotation
      JOINT LeftFoot
      {
        OFFSET 0.000000 -42.000000 4.000000
        CHANNELS 3 Zrotation Xrotation Yrotation
        End Site
        {
          OFFSET 0.000000 0.000000 12.000000
        }
      }
    }
  }
  JOINT RightUpLeg
  {
    OFFSET -10.000000 -5.000000 0.000000
    CHANNELS 3 Zrotation Xrotation Yrotation
    JOINT RightLeg
    {
      OFFSET 0.000000 -42.000000 0.000000
      CHANNELS 3 Zrotation Xrotation Yrotation
      JOINT RightFoot
      {
        OFFSET 0.000000 -42.000000 4.000000
        CHANNELS 3 Zrotation Xrotation Yrotation
        End Site
        {
          OFFSET 0.000000 0.000000 12.000000
        }
      }
    }
  }
}
MOTION
Frames: 6
Frame Time: 0.033333
0.0000 95.0000 0.0000 0.0000 0.0000 0.0000 0.0000 0.0000 0.0000 0.0000 0.0000 0.0000 0.0000 0.0000 0.0000 0.0000 0.0000 0.0000 0.0000 0.0000 0.0000 0.0000 0.0000 0.0000 -49.5615 -10.1003 -21.6730 -103.9201 89.6688 -212.9113 -368.5927 3.8737 39.9191 72.4767 -14.8905 -20.9881 39.6541 0.0000 0.0000 10.4274 0.0000 0.0000 8.4631 6.1337 -25.0212 80.6414 0.0000 0.0000 10.2304 0.0000 0.0000 14.3444 -2.4405 14.4429 15.3721 0.0000 0.0000 18.6837 0.0000 0.0000 3.5573 2.7643 26.3148 16.0658 0.0000 0.0000 8.0054 0.0000 0.0000 -29.7393 21.8342 29.8422 23.2559 0.0000 0.0000 25.5482 0.0000 0.0000 0.0000 0.0000 0.0000 63.7008 -17.5670 27.9339 204.3100 77.6372 298.1060 359.1693 -19.6235 7.8772 -55.9524 -16.1716 28.8148 28.1532 0.0000 0.0000 4.4338 0.0000 0.0000 19.1491 1.3456 38.7812 20.6550 0.0000 0.0000 4.3281 0.0000 0.0000 12.8479 -2.4133 25.9640 23.1199 0.0000 0.0000 3.5944 0.0000 0.0000 20.3651 -3.3151 13.7086 29.8098 0.0000 0.0000 6.1526 0.0000 0.0000 53.2610 -3.5219 9.1523 20.1943 0.0000 0.0000 6.9772 0.0000 0.0000 0.0000 0.0000 0.0000 0.0000 0.0000 0.0000 0.0000 0.0000 0.0000 0.0000 0.0000 0.0000 0.0000 0.0000 0.0000 0.0000 0.0000 0.0000
0.0000 95.0000 0.0000 0.0000 0.0000 0.0000 0.0000 0.0000 0.0000 0.0000 0.0000 0.0000 0.0000 0.0000 0.0000 0.0000 0.0000 0.0000 0.0000 0.0000 0.0000 0.0000 0.0000 0.0000 -49.3447 -10.1015 -21.7811 -251.8106 88.2480 -360.1306 -369.5896 5.6396 33.9771 72.1417 -14.8872 -20.2437 40.6689 0.0000 0.0000 16.7558 0.0000 0.0000 10.4499 5.2607 -20.6215 77.9640 0.0000 0.0000 11.4874 0.0000 0.0000 13.0980 -1.9367 11.9792 30.1869 0.0000 0.0000 28.1992 0.0000 0.0000 -0.8296 3.9720 25.7054 18.6124 0.0000 0.0000 7.2203 0.0000 0.0000 -31.3371 19.7757 25.7828 16.0289 0.0000 0.0000 18.6149 0.0000 0.0000 0.0000 0.0000 0.0000 64.0309 -17.4653 27.6052 197.3850 77.8246 291.9305 359.3114 -24.7366 10.6016 -55.2747 -15.8847 26.5819 30.0437 0.0000 0.0000 4.2289 0.0000 0.0000 26.6538 -0.8817 37.9102 17.1607 0.0000 0.0000 4.4214 0.0000 0.0000 17.0526 -3.2406 26.1420 14.7733 0.0000 0.0000 3.5913 0.0000 0.0000 21.0869 -2.2711 10.4465 23.8058 0.0000 0.0000 7.8181 0.0000 0.0000 50.7629 0.1814 5.1446 15.2208 0.0000 0.0000 8.2874 0.0000 0.0000 0.0000 0.0000 0.0000 0.0000 0.0000 0.0000 0.0000 0.0000 0.0000 0.0000 0.0000 0.0000 0.0000 0.0000 0.0000 0.0000 0.0000 0.0000
0.0000 95.0000 0.0000 0.0000 0.0000 0.0000 0.0000 0.0000 0.0000 0.0000 0.0000 0.0000 0.0000 0.0000 0.0000 0.0000 0.0000 0.0000 0.0000 0.0000 0.0000 0.0000 0.0000 0.0000 -49.2068 -10.0274 -21.6915 -330.6723 87.6815 -437.8617 -393.2126 9.1020 14.2137 84.4753 -13.3592 -35.6996 37.7650 0.0000 0.0000 9.3960 0.0000 0.0000 15.1693 4.7132 -16.7910 49.2916 0.0000 0.0000 3.7742 0.0000 0.0000 10.2671 -1.5118 11.9373 15.9949 0.0000 0.0000 21.8549 0.0000 0.0000 4.4399 2.8877 29.7870 20.9224 0.0000 0.0000 24.8374 0.0000 0.0000 -22.9810 13.7682 21.2383 27.1040 0.0000 0.0000 22.1050 0.0000 0.0000 0.0000 0.0000 0.0000 63.9110 -17.6186 27.9042 203.0151 78.6775 296.3548 335.9764 -9.5856 -10.1417 -53.3820 -14.9035 20.0927 16.1468 0.0000 0.0000 5.9266 0.0000 0.0000 30.9850 -4.8970 63.2367 13.6577 0.0000 0.0000 5.1188 0.0000 0.0000 27.8887 -12.6092 52.7463 17.4655 0.0000 0.0000 7.3999 0.0000 0.0000 37.6096 -18.6464 40.7795 26.2843 0.0000 0.0000 4.5015 0.0000 0.0000 62.6644 -30.9071 33.7429 19.7136 0.0000 0.0000 2.5581 0.0000 0.0000 0.0000 0.0000 0.0000 0.0000 0.0000 0.0000 0.0000 0.0000 0.0000 0.0000 0.0000 0.0000 0.0000 0.0000 0.0000 0.0000 0.0000 0.0000
0.0000 95.0000 0.0000 0.0000 0.0000 0.0000 0.0000 0.0000 0.0000 0.0000 0.0000 0.0000 0.0000 0.0000 0.0000 0.0000 0.0000 0.0000 0.0000 0.0000 0.0000 0.0000 0.0000 0.0000 -49.6905 -9.9475 -21.2895 -368.1041 86.3349 -475.0386 -422.5993 3.5704 -3.3304 92.9199 -10.7407 -43.9657 29.8039 0.0000 0.0000 1.9341 0.0000 0.0000 12.4249 -9.9695 30.5791 37.0730 0.0000 0.0000 1.3331 0.0000 0.0000 -7.8350 1.9283 22.8424 23.7637 0.0000 0.0000 33.6272 0.0000 0.0000 -3.9161 3.9263 20.6164 23.3982 0.0000 0.0000 58.3129 0.0000 0.0000 -19.4395 2.4794 1.7459 29.0623 0.0000 0.0000 13.9431 0.0000 0.0000 0.0000 0.0000 0.0000 64.3631 -17.2149 27.0501 205.4665 78.1427 299.2475 364.4951 -9.6580 -5.8746 -71.7908 -15.0365 33.5019 19.7283 0.0000 0.0000 7.5455 0.0000 0.0000 9.8643 5.1999 48.6006 24.4278 0.0000 0.0000 2.9786 0.0000 0.0000 -2.7683 0.5686 27.9828 42.3900 0.0000 0.0000 4.7818 0.0000 0.0000 7.3901 -3.0237 16.6221 50.9755 0.0000 0.0000 6.6060 0.0000 0.0000 43.4639 -12.7768 20.9343 33.3380 0.0000 0.0000 3.3038 0.0000 0.0000 0.0000 0.0000 0.0000 0.0000 0.0000 0.0000 0.0000 0.0000 0.0000 0.0000 0.0000 0.0000 0.0000 0.0000 0.0000 0.0000 0.0000 0.0000
0.0000 95.0000 0.0000 0.0000 0.0000 0.0000 0.0000 0.0000 0.0000 0.0000 0.0000 0.0000 0.0000 0.0000 0.0000 0.0000 0.0000 0.0000 0.0000 0.0000 0.0000 0.0000 0.0000 0.0000 -50.3182 -10.1409 -21.3949 -381.4253 84.9026 -487.5801 -411.0273 11.8842 3.5119 89.6777 -11.4222 -44.0487 25.7511 0.0000 0.0000 4.4590 0.0000 0.0000 12.2219 -7.5738 23.2450 55.0823 0.0000 0.0000 12.7109 0.0000 0.0000 -6.1107 1.1738 16.9564 28.2594 0.0000 0.0000 34.5878 0.0000 0.0000 -11.7260 2.4701 7.2296 25.9213 0.0000 0.0000 61.0021 0.0000 0.0000 -25.8930 3.3018 1.9315 34.2717 0.0000 0.0000 11.3718 0.0000 0.0000 0.0000 0.0000 0.0000 64.4884 -17.0548 26.7415 211.3704 77.0843 305.0331 339.4154 -14.3099 -7.8299 -57.1644 -14.7178 18.7482 20.9428 0.0000 0.0000 21.1956 0.0000 0.0000 16.4578 1.5358 22.2089 59.9763 0.0000 0.0000 8.7290 0.0000 0.0000 9.3682 0.1189 3.3214 78.5566 0.0000 0.0000 4.8978 0.0000 0.0000 36.6420 2.7941 -1.1125 67.5032 0.0000 0.0000 8.1816 0.0000 0.0000 91.1549 -12.0847 13.0620 20.0958 0.0000 0.0000 7.7530 0.0000 0.0000 0.0000 0.0000 0.0000 0.0000 0.0000 0.0000 0.0000 0.0000 0.0000 0.0000 0.0000 0.0000 0.0000 0.0000 0.0000 0.0000 0.0000 0.0000
0.0000 95.0000 0.0000 0.0000 0.0000 0.0000 0.0000 0.0000 0.0000 0.0000 0.0000 0.0000 0.0000 0.0000 0.0000 0.0000 0.0000 0.0000 0.0000 0.0000 0.0000 0.0000 0.0000 0.0000 -50.8080 -10.2580 -21.4048 -385.4276 84.1174 -491.0222 -391.8525 7.4525 22.5986 85.6372 -13.6297 -31.7457 36.2223 0.0000 0.0000 15.8609 0.0000 0.0000 27.9812 8.4712 -21.7190 57.0862 0.0000 0.0000 14.2699 0.0000 0.0000 19.3179 -1.9689 6.7588 19.7727 0.0000 0.0000 26.2760 0.0000 0.0000 6.1209 2.2153 28.5297 4.9529 0.0000 0.0000 28.4808 0.0000 0.0000 -5.7080 11.8573 30.1384 45.2278 0.0000 0.0000 1.1859 0.0000 0.0000 0.0000 0.0000 0.0000 64.5995 -16.7642 26.2409 217.6022 76.5363 310.9921 352.9846 -12.6769 -11.5300 -64.0184 -15.3092 25.5023 17.7034 0.0000 0.0000 13.0308 0.0000 0.0000 16.1344 1.5542 21.4375 56.6930 0.0000 0.0000 9.7906 0.0000 0.0000 8.6975 0.0388 4.2622 73.1438 0.0000 0.0000 9.5004 0.0000 0.0000 28.9529 -0.0675 4.3385 64.2108 0.0000 0.0000 3.6862 0.0000 0.0000 70.6691 -9.6263 13.5905 23.3464 0.0000 0.0000 7.4080 0.0000 0.0000 0.0000 0.0000 0.0000 0.0000 0.0000 0.0000 0.0000 0.0000 0.0000 0.0000 0.0000 0.0000 0.0000 0.0000 0.0000 0.0000 0.0000 0.0000
